<mxfile host="app.diagrams.net" modified="2022-10-03T12:34:11.482Z" agent="5.0 (Windows NT 10.0; Win64; x64) AppleWebKit/537.36 (KHTML, like Gecko) Chrome/105.0.0.0 Safari/537.36" etag="_gAzeDhXx3K1aNVj35mC" version="20.4.0" type="github">
  <diagram id="FEMm44zsfnUgh6HGWY9c" name="Page-1">
    <mxGraphModel dx="1422" dy="1862" grid="1" gridSize="10" guides="1" tooltips="1" connect="1" arrows="1" fold="1" page="1" pageScale="1" pageWidth="850" pageHeight="1100" math="0" shadow="0">
      <root>
        <mxCell id="0" />
        <mxCell id="1" parent="0" />
        <mxCell id="ugC8qtfzILLRh986nrbc-41" value="" style="rounded=1;whiteSpace=wrap;html=1;shadow=0;strokeColor=none;" vertex="1" parent="1">
          <mxGeometry x="30" y="-70" width="980" height="650" as="geometry" />
        </mxCell>
        <mxCell id="ugC8qtfzILLRh986nrbc-20" value="" style="rounded=1;whiteSpace=wrap;html=1;shadow=0;fillColor=#f5f5f5;fontColor=#333333;strokeColor=#666666;" vertex="1" parent="1">
          <mxGeometry x="510" y="80" width="490" height="470" as="geometry" />
        </mxCell>
        <mxCell id="ugC8qtfzILLRh986nrbc-19" value="" style="rounded=1;whiteSpace=wrap;html=1;shadow=0;fillColor=#f5f5f5;fontColor=#333333;strokeColor=#666666;" vertex="1" parent="1">
          <mxGeometry x="40" y="80" width="420" height="470" as="geometry" />
        </mxCell>
        <mxCell id="ugC8qtfzILLRh986nrbc-7" style="edgeStyle=orthogonalEdgeStyle;rounded=1;orthogonalLoop=1;jettySize=auto;html=1;exitX=0.5;exitY=1;exitDx=0;exitDy=0;entryX=0.5;entryY=0;entryDx=0;entryDy=0;shape=flexArrow;fillColor=default;" edge="1" parent="1" source="ugC8qtfzILLRh986nrbc-1" target="ugC8qtfzILLRh986nrbc-3">
          <mxGeometry relative="1" as="geometry" />
        </mxCell>
        <mxCell id="ugC8qtfzILLRh986nrbc-44" style="edgeStyle=orthogonalEdgeStyle;shape=flexArrow;rounded=1;orthogonalLoop=1;jettySize=auto;html=1;exitX=0;exitY=1;exitDx=0;exitDy=0;entryX=1;entryY=1;entryDx=0;entryDy=0;fontSize=25;fillColor=default;" edge="1" parent="1" source="ugC8qtfzILLRh986nrbc-1" target="ugC8qtfzILLRh986nrbc-6">
          <mxGeometry relative="1" as="geometry" />
        </mxCell>
        <mxCell id="ugC8qtfzILLRh986nrbc-1" value="Idle" style="ellipse;whiteSpace=wrap;html=1;aspect=fixed;shadow=0;fillColor=#d5e8d4;strokeColor=#82b366;" vertex="1" parent="1">
          <mxGeometry x="280" y="220" width="120" height="120" as="geometry" />
        </mxCell>
        <mxCell id="ugC8qtfzILLRh986nrbc-10" style="edgeStyle=orthogonalEdgeStyle;shape=flexArrow;rounded=1;orthogonalLoop=1;jettySize=auto;html=1;exitX=0;exitY=0.5;exitDx=0;exitDy=0;entryX=0.5;entryY=1;entryDx=0;entryDy=0;fillColor=default;" edge="1" parent="1" source="ugC8qtfzILLRh986nrbc-3" target="ugC8qtfzILLRh986nrbc-6">
          <mxGeometry relative="1" as="geometry" />
        </mxCell>
        <mxCell id="ugC8qtfzILLRh986nrbc-3" value="Normal Chase" style="ellipse;whiteSpace=wrap;html=1;aspect=fixed;shadow=0;fillColor=#fff2cc;strokeColor=#d6b656;" vertex="1" parent="1">
          <mxGeometry x="280" y="420" width="120" height="120" as="geometry" />
        </mxCell>
        <mxCell id="ugC8qtfzILLRh986nrbc-11" style="edgeStyle=orthogonalEdgeStyle;shape=flexArrow;rounded=1;orthogonalLoop=1;jettySize=auto;html=1;exitX=0.5;exitY=0;exitDx=0;exitDy=0;entryX=0.5;entryY=1;entryDx=0;entryDy=0;fillColor=default;" edge="1" parent="1" source="ugC8qtfzILLRh986nrbc-4" target="ugC8qtfzILLRh986nrbc-5">
          <mxGeometry relative="1" as="geometry" />
        </mxCell>
        <mxCell id="ugC8qtfzILLRh986nrbc-28" style="edgeStyle=orthogonalEdgeStyle;shape=flexArrow;rounded=1;orthogonalLoop=1;jettySize=auto;html=1;exitX=0;exitY=0.5;exitDx=0;exitDy=0;fillColor=default;" edge="1" parent="1" source="ugC8qtfzILLRh986nrbc-4" target="ugC8qtfzILLRh986nrbc-27">
          <mxGeometry relative="1" as="geometry" />
        </mxCell>
        <mxCell id="ugC8qtfzILLRh986nrbc-4" value="Stunned" style="ellipse;whiteSpace=wrap;html=1;aspect=fixed;shadow=0;fillColor=#d5e8d4;strokeColor=#82b366;" vertex="1" parent="1">
          <mxGeometry x="750" y="415" width="120" height="120" as="geometry" />
        </mxCell>
        <mxCell id="ugC8qtfzILLRh986nrbc-13" style="edgeStyle=orthogonalEdgeStyle;shape=flexArrow;rounded=1;orthogonalLoop=1;jettySize=auto;html=1;exitX=1;exitY=0.5;exitDx=0;exitDy=0;entryX=1;entryY=0.5;entryDx=0;entryDy=0;fillColor=default;" edge="1" parent="1" source="ugC8qtfzILLRh986nrbc-5" target="ugC8qtfzILLRh986nrbc-4">
          <mxGeometry relative="1" as="geometry">
            <Array as="points">
              <mxPoint x="910" y="275" />
              <mxPoint x="910" y="475" />
            </Array>
          </mxGeometry>
        </mxCell>
        <mxCell id="ugC8qtfzILLRh986nrbc-5" value="Staggered Chase" style="ellipse;whiteSpace=wrap;html=1;aspect=fixed;shadow=0;fillColor=#fff2cc;strokeColor=#d6b656;" vertex="1" parent="1">
          <mxGeometry x="750" y="215" width="120" height="120" as="geometry" />
        </mxCell>
        <mxCell id="ugC8qtfzILLRh986nrbc-43" style="edgeStyle=orthogonalEdgeStyle;shape=flexArrow;rounded=1;orthogonalLoop=1;jettySize=auto;html=1;exitX=1;exitY=0;exitDx=0;exitDy=0;entryX=0;entryY=0;entryDx=0;entryDy=0;fontSize=25;fillColor=default;" edge="1" parent="1" source="ugC8qtfzILLRh986nrbc-6" target="ugC8qtfzILLRh986nrbc-1">
          <mxGeometry relative="1" as="geometry" />
        </mxCell>
        <mxCell id="ugC8qtfzILLRh986nrbc-46" style="edgeStyle=orthogonalEdgeStyle;shape=flexArrow;rounded=1;orthogonalLoop=1;jettySize=auto;html=1;exitX=0;exitY=1;exitDx=0;exitDy=0;entryX=0;entryY=1;entryDx=0;entryDy=0;fontSize=25;fillColor=default;" edge="1" parent="1" source="ugC8qtfzILLRh986nrbc-6" target="ugC8qtfzILLRh986nrbc-3">
          <mxGeometry relative="1" as="geometry">
            <Array as="points">
              <mxPoint x="78" y="522" />
            </Array>
          </mxGeometry>
        </mxCell>
        <mxCell id="ugC8qtfzILLRh986nrbc-6" value="Return" style="ellipse;whiteSpace=wrap;html=1;aspect=fixed;shadow=0;fillColor=#fff2cc;strokeColor=#d6b656;" vertex="1" parent="1">
          <mxGeometry x="60" y="220" width="120" height="120" as="geometry" />
        </mxCell>
        <mxCell id="ugC8qtfzILLRh986nrbc-30" style="edgeStyle=orthogonalEdgeStyle;shape=flexArrow;rounded=1;orthogonalLoop=1;jettySize=auto;html=1;exitX=0.5;exitY=0;exitDx=0;exitDy=0;entryX=0.5;entryY=0;entryDx=0;entryDy=0;fillColor=default;" edge="1" parent="1" source="ugC8qtfzILLRh986nrbc-15" target="ugC8qtfzILLRh986nrbc-16">
          <mxGeometry relative="1" as="geometry">
            <Array as="points">
              <mxPoint x="245" y="40" />
              <mxPoint x="760" y="40" />
            </Array>
          </mxGeometry>
        </mxCell>
        <mxCell id="ugC8qtfzILLRh986nrbc-15" value="Base Behaviour" style="rounded=1;whiteSpace=wrap;html=1;shadow=0;" vertex="1" parent="1">
          <mxGeometry x="170" y="100" width="150" height="60" as="geometry" />
        </mxCell>
        <mxCell id="ugC8qtfzILLRh986nrbc-31" style="edgeStyle=orthogonalEdgeStyle;shape=flexArrow;rounded=1;orthogonalLoop=1;jettySize=auto;html=1;exitX=0.5;exitY=1;exitDx=0;exitDy=0;entryX=0.5;entryY=1;entryDx=0;entryDy=0;fillColor=default;" edge="1" parent="1" source="ugC8qtfzILLRh986nrbc-16" target="ugC8qtfzILLRh986nrbc-15">
          <mxGeometry relative="1" as="geometry">
            <Array as="points">
              <mxPoint x="760" y="200" />
              <mxPoint x="245" y="200" />
            </Array>
          </mxGeometry>
        </mxCell>
        <mxCell id="ugC8qtfzILLRh986nrbc-16" value="Holy Light Behaviour" style="rounded=1;whiteSpace=wrap;html=1;shadow=0;" vertex="1" parent="1">
          <mxGeometry x="685" y="110" width="150" height="60" as="geometry" />
        </mxCell>
        <mxCell id="ugC8qtfzILLRh986nrbc-21" value="Returned to starting location" style="text;html=1;strokeColor=none;fillColor=none;align=center;verticalAlign=middle;whiteSpace=wrap;rounded=0;shadow=0;" vertex="1" parent="1">
          <mxGeometry x="180" y="243" width="90" height="30" as="geometry" />
        </mxCell>
        <mxCell id="ugC8qtfzILLRh986nrbc-22" value="Player out of range or in safe zone." style="text;html=1;strokeColor=none;fillColor=none;align=center;verticalAlign=middle;whiteSpace=wrap;rounded=0;shadow=0;" vertex="1" parent="1">
          <mxGeometry x="150" y="440" width="110" height="30" as="geometry" />
        </mxCell>
        <mxCell id="ugC8qtfzILLRh986nrbc-24" value="Player in &#39;view&#39; of monster." style="text;html=1;strokeColor=none;fillColor=none;align=center;verticalAlign=middle;whiteSpace=wrap;rounded=0;shadow=0;" vertex="1" parent="1">
          <mxGeometry x="350" y="360" width="110" height="30" as="geometry" />
        </mxCell>
        <mxCell id="ugC8qtfzILLRh986nrbc-29" style="edgeStyle=orthogonalEdgeStyle;shape=flexArrow;rounded=1;orthogonalLoop=1;jettySize=auto;html=1;exitX=0.5;exitY=0;exitDx=0;exitDy=0;entryX=0;entryY=0.5;entryDx=0;entryDy=0;fillColor=default;" edge="1" parent="1" source="ugC8qtfzILLRh986nrbc-27" target="ugC8qtfzILLRh986nrbc-5">
          <mxGeometry relative="1" as="geometry" />
        </mxCell>
        <mxCell id="ugC8qtfzILLRh986nrbc-27" value="Drop Item" style="ellipse;whiteSpace=wrap;html=1;aspect=fixed;shadow=0;fillColor=#fff2cc;strokeColor=#d6b656;" vertex="1" parent="1">
          <mxGeometry x="550" y="415" width="120" height="120" as="geometry" />
        </mxCell>
        <mxCell id="ugC8qtfzILLRh986nrbc-32" value="Hit with holy light" style="text;html=1;strokeColor=none;fillColor=none;align=center;verticalAlign=middle;whiteSpace=wrap;rounded=0;shadow=0;" vertex="1" parent="1">
          <mxGeometry x="920" y="360" width="60" height="30" as="geometry" />
        </mxCell>
        <mxCell id="ugC8qtfzILLRh986nrbc-34" value="Set period of time passes and player in &#39;view&#39; of monster." style="text;html=1;strokeColor=none;fillColor=none;align=center;verticalAlign=middle;whiteSpace=wrap;rounded=0;shadow=0;" vertex="1" parent="1">
          <mxGeometry x="510" y="340" width="90" height="70" as="geometry" />
        </mxCell>
        <mxCell id="ugC8qtfzILLRh986nrbc-36" value="Monster has Nether Shard" style="text;html=1;strokeColor=none;fillColor=none;align=center;verticalAlign=middle;whiteSpace=wrap;rounded=0;shadow=0;" vertex="1" parent="1">
          <mxGeometry x="670" y="490" width="90" height="30" as="geometry" />
        </mxCell>
        <mxCell id="ugC8qtfzILLRh986nrbc-37" value="Set period of time passes and player in &#39;view&#39; of monster." style="text;html=1;strokeColor=none;fillColor=none;align=center;verticalAlign=middle;whiteSpace=wrap;rounded=0;shadow=0;" vertex="1" parent="1">
          <mxGeometry x="710" y="340" width="90" height="70" as="geometry" />
        </mxCell>
        <mxCell id="ugC8qtfzILLRh986nrbc-38" value="Hit with holy light" style="text;html=1;strokeColor=none;fillColor=none;align=center;verticalAlign=middle;whiteSpace=wrap;rounded=0;shadow=0;" vertex="1" parent="1">
          <mxGeometry x="310" width="60" height="30" as="geometry" />
        </mxCell>
        <mxCell id="ugC8qtfzILLRh986nrbc-39" value="Set period of time passes" style="text;html=1;strokeColor=none;fillColor=none;align=center;verticalAlign=middle;whiteSpace=wrap;rounded=0;shadow=0;" vertex="1" parent="1">
          <mxGeometry x="590" y="160" width="90" height="30" as="geometry" />
        </mxCell>
        <mxCell id="ugC8qtfzILLRh986nrbc-42" value="Subway Passenger AI HFSM" style="text;html=1;strokeColor=none;fillColor=none;align=center;verticalAlign=middle;whiteSpace=wrap;rounded=0;shadow=0;fontSize=25;" vertex="1" parent="1">
          <mxGeometry x="400" y="-50" width="240" height="30" as="geometry" />
        </mxCell>
        <mxCell id="ugC8qtfzILLRh986nrbc-45" value="Not at original location" style="text;html=1;strokeColor=none;fillColor=none;align=center;verticalAlign=middle;whiteSpace=wrap;rounded=0;shadow=0;" vertex="1" parent="1">
          <mxGeometry x="180" y="331" width="90" height="30" as="geometry" />
        </mxCell>
        <mxCell id="ugC8qtfzILLRh986nrbc-47" value="Player in &#39;view&#39; of monster." style="text;html=1;strokeColor=none;fillColor=none;align=center;verticalAlign=middle;whiteSpace=wrap;rounded=0;shadow=0;" vertex="1" parent="1">
          <mxGeometry x="100" y="520" width="150" height="30" as="geometry" />
        </mxCell>
      </root>
    </mxGraphModel>
  </diagram>
</mxfile>
